<?xml version="1.0" encoding="UTF-8"?>
<svg id="Camada_1" data-name="Camada 1" xmlns="http://www.w3.org/2000/svg" viewBox="0 0 484.83 171.39">
  <defs>
    <style>
      .cls-1 {
        fill: #5d81a1;
      }

      .cls-2 {
        fill: #e99b8d;
      }

      .cls-3 {
        fill: #a8c5e0;
      }
    </style>
  </defs>
  <g>
    <path class="cls-1" d="M239.82,35.5l15.08,26.07,15.02-26.07h5.49v46.49h-6.01v-33.59l-14.5,25.11-14.56-25.11v33.59h-6.01v-46.49h5.49Z"/>
    <path class="cls-1" d="M292.04,41.02c.83.81,1.25,1.81,1.25,2.99s-.42,2.18-1.25,2.99-1.83,1.22-2.99,1.22-2.13-.41-2.96-1.22-1.25-1.81-1.25-2.99.42-2.18,1.25-2.99c.83-.81,1.82-1.22,2.96-1.22s2.16.41,2.99,1.22ZM292.07,52.09v29.9h-6.02v-29.9h6.02Z"/>
    <path class="cls-1" d="M307.33,60.11v21.88h-6.04v-29.9h6.04v3.49c1.26-3.41,3.79-5.11,7.58-5.11,3.24,0,5.81,1.15,7.71,3.44,1.91,2.3,2.89,5.18,2.95,8.65v19.44h-6.01v-19.21c0-1.72-.63-3.2-1.89-4.43-1.26-1.23-2.76-1.85-4.5-1.85s-3.22.6-4.47,1.8c-.7.72-1.15,1.32-1.37,1.8Z"/>
    <path class="cls-1" d="M360.33,54.16v-18.66h6.04v46.49h-6.04v-3.72c-2.91,3-6.29,4.5-10.14,4.5-4.57,0-8.47-1.62-11.7-4.85-3.23-3.23-4.84-7.14-4.84-11.71s1.61-8.48,4.84-11.71c3.23-3.23,7.12-4.85,11.7-4.85,3.85,0,7.24,1.5,10.14,4.5ZM360.33,68.45v-4.45c-.35-1.88-1.29-3.58-2.82-5.11-2.02-2.03-4.46-3.05-7.32-3.05s-5.31,1.02-7.34,3.05c-2.03,2.03-3.04,4.47-3.04,7.32s1.01,5.31,3.04,7.32c2.02,2.02,4.47,3.02,7.34,3.02s5.31-1.01,7.32-3.02c1.53-1.53,2.47-3.23,2.82-5.09Z"/>
  </g>
  <g>
    <path class="cls-3" d="M366.82,83.69l2.03-.36c7.49-1.42,12.71-2.14,15.66-2.14,2.14,0,3.2.86,3.2,2.59,0,1.09-.42,1.81-1.27,2.19-.58.27-1.56.44-2.95.51-8.78.54-15.46,1.58-20.04,3.1-1.8,2.68-4.42,7.68-7.88,15-2,4.27-3.56,8.22-4.68,11.85.78-.27,1.54-.54,2.29-.81,5.02-1.69,8.71-2.8,11.09-3.31,3.15-.61,6.12-.92,8.9-.92,1.83,0,3.19.22,4.07.66.78.37,1.17,1.09,1.17,2.14s-.47,1.75-1.42,2.08c-.44.14-1.49.22-3.15.25-8.98.48-16.99,2.68-24,6.61-.92.51-1.7.76-2.34.76-.95,0-1.8-.49-2.54-1.47-.64-.81-.97-1.64-.97-2.49s1.07-3.97,3.2-9.36c3.22-8.17,7.61-17.12,13.17-26.85,1.66-2.95,4.81-7.92,9.46-14.9,1.05-1.63,2.07-3.22,3.05-4.78-1.36-.34-2.03-1.24-2.03-2.7,0-1.08.54-1.88,1.63-2.39,1.76-.81,5.15-1.61,10.17-2.39,7.49-1.15,13.85-1.73,19.07-1.73,2.95,0,4.42.78,4.42,2.34,0,1.09-.51,2-1.53,2.75-.51.37-1.32.56-2.44.56-.07,0-.46-.02-1.17-.05h-1.68c-2.44,0-5.97.25-10.58.76-4,.44-7.44,1.09-10.32,1.93.34.51.51.92.51,1.22,0,.58-.8,1.9-2.39,3.97l-2.44,3.76c-3.49,5.15-5.92,9.02-7.27,11.59Z"/>
    <path class="cls-3" d="M398.14,112.93c-1.12,1.97-2.22,3.63-3.31,4.98-2.14,2.64-4.25,3.97-6.36,3.97-1.83,0-3.25-.86-4.27-2.59-.64-1.12-.97-2.44-.97-3.97,0-3.76,1.19-7.92,3.56-12.46,2.64-5.05,5.83-8.93,9.56-11.65,2.44-1.76,4.8-2.64,7.07-2.64,1.42,0,2.61.44,3.56,1.32.81.78,1.22,1.66,1.22,2.64,0,.75-.29,1.78-.87,3.1.51.71.76,1.34.76,1.88,0,.71-.47,1.88-1.42,3.51-.98,1.66-1.97,3.86-2.95,6.61-1.05,2.92-1.58,5.26-1.58,7.02,0,1.42.42,2.59,1.27,3.51.24.24.93.63,2.08,1.17.85.41,1.27,1.12,1.27,2.14,0,.64-.24,1.17-.71,1.58-.51.44-1.1.66-1.78.66-1.83,0-3.41-.81-4.73-2.44-1.08-1.32-1.63-2.98-1.63-4.98,0-.68.07-1.8.2-3.36ZM404.5,96.2c-.41-.75-.85-1.3-1.32-1.65s-.98-.53-1.53-.53c-2.58,0-5.37,2.25-8.39,6.76-3.32,4.98-4.98,9.2-4.98,12.66,0,.85.16,1.49.48,1.93.32.44.8.66,1.45.66,1.63,0,3.53-1.73,5.7-5.19,1.22-1.9,2.73-4.69,4.53-8.39,1.19-2.41,2.05-4,2.59-4.78.27-.41.76-.9,1.47-1.47Z"/>
    <path class="cls-3" d="M433.48,87.56c2.1,0,3.68.37,4.73,1.12,1.05.75,1.58,1.88,1.58,3.41,0,2-.75,3.93-2.24,5.8-1.42,1.76-3.56,3.19-6.41,4.27-1.56.58-2.87.86-3.92.86-1.42,0-2.14-.63-2.14-1.88,0-.85.41-1.49,1.22-1.93.2-.1,1.36-.39,3.46-.86,1.25-.27,2.41-.86,3.46-1.78.92-.78,1.37-1.63,1.37-2.54,0-.71-.2-1.24-.61-1.58-.41-.34-1.02-.51-1.83-.51-1.97,0-4.14.8-6.51,2.39-2.75,1.8-4.12,3.93-4.12,6.41,0,1.76.9,3.97,2.7,6.61,2,2.88,3,5.32,3,7.32,0,2.98-1.32,5.32-3.97,7.02-1.63,1.05-3.48,1.58-5.54,1.58-3.25,0-5.73-1.17-7.42-3.51-1.19-1.66-1.78-3.63-1.78-5.9,0-2.64.68-4.86,2.03-6.66.88-1.19,1.8-1.78,2.75-1.78.85,0,1.27.34,1.27,1.02,0,.27-.15.68-.46,1.22-.78,1.46-1.17,3.17-1.17,5.14,0,1.66.59,3.07,1.78,4.22,1.05,1.02,2.25,1.53,3.61,1.53s2.36-.44,3.1-1.32c.61-.75.92-1.69.92-2.85,0-1.42-.81-3.27-2.44-5.54-2.24-3.12-3.36-5.95-3.36-8.49,0-3.39,1.85-6.39,5.54-9,3.59-2.51,7.39-3.76,11.39-3.76Z"/>
    <path class="cls-3" d="M440.6,111.56v.92c0,.75.19,1.39.56,1.93.85,1.25,2.24,1.88,4.17,1.88,4.24,0,9.14-3.25,14.7-9.76.98-1.12,1.81-1.68,2.49-1.68.37,0,.71.19,1.02.56.2.27.31.53.31.76,0,1.32-1.63,3.56-4.88,6.71-2.54,2.48-5.26,4.49-8.14,6.05-2.88,1.56-5.56,2.34-8.04,2.34s-4.54-.88-6-2.64c-.98-1.22-1.47-2.88-1.47-4.98,0-5.73,2.69-11.34,8.08-16.83,4.37-4.48,8.19-6.71,11.44-6.71.88,0,1.68.27,2.39.81.88.71,1.32,1.64,1.32,2.8,0,1.8-.83,4-2.49,6.61-3.42,5.42-8.58,9.17-15.46,11.24ZM441.72,107.59c2.37-.81,4.24-1.73,5.59-2.75,2.37-1.83,4.25-3.9,5.64-6.2.51-.81.76-1.54.76-2.19,0-.68-.32-1.02-.97-1.02-.88,0-2.14.66-3.76,1.98-2.92,2.34-5.34,5.73-7.27,10.17Z"/>
  </g>
  <path class="cls-2" d="M84.52,49.31c-16.13-1.96-24.5,10.78-26.68,17.8-.53,1.69.42,3.48,2.11,4.01.32.1.64.15.96.15,1.36,0,2.63-.88,3.06-2.24.2-.62,4.99-15.14,19.77-13.34,1.77.21,3.36-1.04,3.58-2.8.21-1.76-1.04-3.36-2.8-3.58Z"/>
  <path class="cls-2" d="M146.62,50.51c-1.29-1.21-3.32-1.14-4.53.15-.23.24-.41.51-.55.8-.59,1.23-.35,2.75.69,3.74.47.45,11.47,11.07,3.42,23.6-.96,1.5-.52,3.48.97,4.44,1.49.96,3.48.52,4.44-.97,8.77-13.67.93-26.75-4.44-31.76Z"/>
  <path class="cls-2" d="M96.04,66.89c-1.75,1.43-2.01,4.01-.58,5.77.27.33.58.61.92.84,1.46.96,3.43.92,4.85-.24.65-.52,16-12.66,30.51-.31,1.74,1.47,4.32,1.26,5.79-.47,1.47-1.73,1.26-4.32-.47-5.79-15.84-13.45-33.76-5.74-41.03.21Z"/>
  <path class="cls-2" d="M55.52,78.37c-1.43-.46-2.96.33-3.44,1.76-.48,1.43.3,2.98,1.73,3.48.26.09,6.46,2.33,9.75,12.18,2.39,7.15,7.78,11.2,14.44,13.44-.87,2.94-3.04,7.91-7.95,9.63-6.85,2.41-10.18-1.02-10.29-1.13-1-1.14-2.74-1.26-3.89-.25-1.14,1-1.26,2.74-.25,3.89.18.2,3.49,3.88,9.8,3.88,1.89,0,4.04-.33,6.46-1.18,7.33-2.58,10.32-9.46,11.46-13.44,6.12,1.18,12.84,1.28,19.08,1.08,1.73-.06,3.39-.13,5-.19,16.76-.71,24.41-1.03,27.4,14.32.26,1.31,1.41,2.23,2.7,2.23.17,0,.35-.02.53-.05,1.49-.29,2.47-1.74,2.18-3.23-3.9-20-16.12-19.48-33.04-18.77-1.59.07-3.24.14-4.95.19-8.31.27-14.9-.17-19.99-1.41-.2-.08-.4-.14-.62-.17,0,0-.01,0-.02,0-7-1.85-11.05-5.29-12.82-10.57-4.22-12.64-12.9-15.55-13.26-15.67Z"/>
  <path class="cls-2" d="M201.68,80.97c.7-10.81-4.25-17.69-7.32-20.87-2.96-3.07-6.52-5.15-9.8-5.82-.54-4.24-2.23-7.7-5.01-10.31-3.91-3.66-9.77-5.48-17.4-5.39-4.19-5.2-10.31-8.64-17.4-9.73-6.4-.99-13.09.03-17.78,2.61-6.42-5.18-14.75-5.77-18.24-5.77-4.56,0-14.13,2.37-18.42,7.77-.46-.08-.9-.04-1.32.09-22.96-2.78-36.34,12.02-41.16,22.41-5.62,1.83-10.44,6.11-13.66,12.21-2.77,5.23-3.98,11.16-3.31,15.6-11.39,7.16-11.07,25.87-8.19,33.23.22,8.18,2.75,14.59,7.52,19.06,7.07,6.63,16.5,6.49,17.54,6.46h71.04c1,.52,2.01.96,3.02,1.28,2.59.93,6.41,1.91,11.09,1.91,2.92,0,6.17-.38,9.66-1.4,13.28-.25,20-12.42,22.23-20.47h14.7c.56,0,13.71-.13,21.74-11.19,7.5-10.33,5.01-23.33.46-31.69ZM196.76,109.42c-6.35,8.75-17.18,8.92-17.28,8.92h-14.08c-.84-3.58-2-6.88-3.48-9.87,14.67-5.04,17.08-19.59,16.26-26.73-.2-1.76-1.79-3.02-3.55-2.82-.33.04-.65.12-.94.25-1.25.55-2.05,1.86-1.9,3.29.07.65,1.55,15.87-12.71,20.18-.2.06-.39.14-.58.24-4.64-6.29-11.14-10.81-19.47-13.49-7.47-2.4-15.58-3.11-23.27-3.21,1.55-2.35,2.84-5.45,2.66-9.22-.07-1.52-1.36-2.68-2.88-2.62-1.52.07-2.69,1.37-2.62,2.88.22,4.56-3.16,7.87-4.53,9.01-1.95.05-3.84.11-5.66.17l-1.35.05c-18.33.61-22.61-16.47-22.8-17.26-.4-1.73-2.12-2.81-3.84-2.41-1.73.39-2.81,2.12-2.42,3.85,1.82,7.97,10.27,22.9,29.28,22.25l1.36-.05c21.09-.73,49.98-1.72,56.39,27.74.07.32.19.62.35.89-.93,3.71-5.18,17.34-17.56,17.34-.27,0-.54.04-.8.12-7.13,2.16-13.05,1.17-16.65.04-.21-.11-.42-.21-.66-.26-.22-.05-.45-.12-.68-.2-1.46-.55-2.32-1.04-2.43-1.11-.04-.02-.08-.03-.11-.05-3.61-2.06-7.49-5.81-10.76-8.98-.84-.81-1.65-1.6-2.44-2.34-6.19-5.84-15.21-3.94-15.59-3.86-1.48.33-2.41,1.79-2.1,3.27s1.78,2.43,3.27,2.11c.06-.01,6.59-1.33,10.64,2.48.77.73,1.57,1.5,2.38,2.29,1.6,1.55,3.26,3.16,4.98,4.68h-63.51s-.09,0-.13,0c-.08,0-8.04.28-13.63-5-3.22-3.04-5.1-7.4-5.61-12.96,1.15.23,2.56.43,4.09.43,3.09,0,6.64-.8,9.33-3.69,1.1-1.18,2.08-2.34,3.03-3.46,3.06-3.61,5.47-6.45,9.53-7.61,1.46-.42,2.31-1.94,1.89-3.4-.42-1.46-1.94-2.31-3.4-1.89-5.67,1.62-8.85,5.37-12.22,9.35-.91,1.08-1.85,2.19-2.87,3.28-3.33,3.59-10.17,1.12-10.25,1.09-.08-.03-.17-.04-.25-.07-1.74-7.16-.75-21.41,7.97-25.37.05-.02.09-.05.14-.08,2.06.05,6.21.59,8.77,3.89.93,1.2,2.66,1.42,3.86.49,1.2-.94,1.42-2.66.49-3.86-3.64-4.7-8.98-5.79-12.21-5.99-.2-2.91.61-7.22,2.81-11.4,1.58-2.99,5.18-8.25,11.46-9.82.85-.21,1.54-.81,1.88-1.62,3.85-9.3,16.31-23.95,38.62-19.89.04,0,.09,0,.13.01,3.48,1.26,11.05,5,16.37,14.92.5.93,1.45,1.45,2.43,1.45.44,0,.88-.11,1.3-.33,1.34-.72,1.84-2.39,1.13-3.73-4.93-9.2-11.65-13.9-16.36-16.21,3.26-2.58,9.16-4.34,12.73-4.34,2.91,0,9.91.48,14.99,4.72.13.21.29.41.48.59,4.22,3.77,3.18,10.12,3.16,10.25-.27,1.49.71,2.92,2.21,3.2.93.17,1.85-.15,2.47-.78.37-.38.64-.87.74-1.43.06-.32,1.14-6.51-2.12-11.97,3.21-1.44,7.97-2.31,13.25-1.49,4.25.66,10.16,2.65,14.4,8.34-4.42,5.74-3.15,13.03-3.09,13.38.1.56.37,1.05.74,1.43.62.63,1.53.95,2.47.78,1.49-.28,2.48-1.71,2.21-3.2-.02-.13-1.06-6.48,3.16-10.25.21-.19.37-.41.51-.64,4.06.19,8.55,1.12,11.48,3.86,2.22,2.08,3.36,4.99,3.46,8.89,0,.25.06.48.13.71-.06.09-.13.18-.18.28-.06.12-3.16,5.76-8.81,6.12-1.52.1-2.67,1.41-2.57,2.93.11,1.53,1.41,2.67,2.93,2.57,8.8-.57,13.15-8.71,13.33-9.06.09-.17.15-.35.2-.54,1.8.56,4.02,1.84,6.13,4.03,2.34,2.42,6.05,7.58,5.83,15.73-7.85,1.28-11.75,8.56-11.92,8.89-.26.51-.36,1.06-.3,1.58.1.88.62,1.69,1.46,2.13,1.34.7,3,.18,3.71-1.16.06-.11,3.01-5.45,8.37-6.07,3.29,6.9,4.8,16.69-.8,24.39Z"/>
</svg>